<?xml version="1.0" encoding="UTF-8" standalone="no"?>
<!-- Created with Inkscape (http://www.inkscape.org/) -->

<svg
   xmlns:dc="http://purl.org/dc/elements/1.1/"
   xmlns:cc="http://creativecommons.org/ns#"
   xmlns:rdf="http://www.w3.org/1999/02/22-rdf-syntax-ns#"
   xmlns:svg="http://www.w3.org/2000/svg"
   xmlns="http://www.w3.org/2000/svg"
   xmlns:sodipodi="http://sodipodi.sourceforge.net/DTD/sodipodi-0.dtd"
   xmlns:inkscape="http://www.inkscape.org/namespaces/inkscape"
   width="110.02119mm"
   height="18.491894mm"
   viewBox="0 0 110.02118 18.491894"
   version="1.1"
   id="svg855"
   inkscape:version="0.92.4 (5da689c313, 2019-01-14)"
   sodipodi:docname="a.svg">
  <defs
     id="defs849" />
  <sodipodi:namedview
     id="base"
     pagecolor="#ffffff"
     bordercolor="#705c5c"
     borderopacity="0.06666667"
     inkscape:pageopacity="0.0"
     inkscape:pageshadow="2"
     inkscape:zoom="0.35"
     inkscape:cx="-173.94029"
     inkscape:cy="-249.49843"
     inkscape:document-units="mm"
     inkscape:current-layer="layer1"
     showgrid="false"
     fit-margin-top="0"
     fit-margin-left="0"
     fit-margin-right="0"
     fit-margin-bottom="0"
     inkscape:window-width="1920"
     inkscape:window-height="999"
     inkscape:window-x="-9"
     inkscape:window-y="-9"
     inkscape:window-maximized="1" />
  <metadata
     id="metadata852">
    <rdf:RDF>
      <cc:Work
         rdf:about="">
        <dc:format>image/svg+xml</dc:format>
        <dc:type
           rdf:resource="http://purl.org/dc/dcmitype/StillImage" />
        <dc:title></dc:title>
      </cc:Work>
    </rdf:RDF>
  </metadata>
  <g
     inkscape:label="Layer 1"
     inkscape:groupmode="layer"
     id="layer1"
     transform="translate(-24.477059,-64.328311)">
    <g
       aria-label="MIJUAPP"
       transform="scale(0.26458333)"
       style="font-style:normal;font-variant:normal;font-weight:bold;font-stretch:normal;font-size:96px;line-height:1.25;font-family:Arial;-inkscape-font-specification:'Arial, Bold';font-variant-ligatures:normal;font-variant-caps:normal;font-variant-numeric:normal;font-feature-settings:normal;text-align:start;letter-spacing:0px;word-spacing:0px;writing-mode:lr-tb;text-anchor:start;fill:#ff0000;fill-opacity:1;stroke:none"
       id="flowRoot1400">
      <path
         d="m 92.511719,311.84938 v -68.71875 h 20.765621 l 12.46875,46.875 12.32813,-46.875 h 20.8125 v 68.71875 h -12.89063 v -54.09375 l -13.64062,54.09375 h -13.35938 l -13.59375,-54.09375 v 54.09375 z"
         style=""
         id="path1416" />
      <path
         d="m 172.33984,311.84938 v -68.71875 h 13.875 v 68.71875 z"
         style=""
         id="path1418" />
      <path
         d="m 224.18359,243.13063 h 13.82813 v 43.5 q 0,8.53125 -1.5,13.125 -2.01563,6 -7.3125,9.65625 -5.29688,3.60937 -13.96875,3.60937 -10.17188,0 -15.65625,-5.67187 -5.48438,-5.71875 -5.53125,-16.73438 l 13.07812,-1.5 q 0.23438,5.90625 1.73438,8.34375 2.25,3.70313 6.84375,3.70313 4.64062,0 6.5625,-2.625 1.92187,-2.67188 1.92187,-11.01563 z"
         style=""
         id="path1420" />
      <path
         d="m 252.73047,243.13063 h 13.875 v 37.21875 q 0,8.85937 0.51562,11.48437 0.89063,4.21875 4.21875,6.79688 3.375,2.53125 9.1875,2.53125 5.90625,0 8.90625,-2.39063 3,-2.4375 3.60938,-5.95312 0.60937,-3.51563 0.60937,-11.67188 v -38.01562 h 13.875 v 36.09375 q 0,12.375 -1.125,17.48437 -1.125,5.10938 -4.17187,8.625 -3,3.51563 -8.0625,5.625 -5.0625,2.0625 -13.21875,2.0625 -9.84375,0 -14.95313,-2.25 -5.0625,-2.29687 -8.01562,-5.90625 -2.95313,-3.65625 -3.89063,-7.64062 -1.35937,-5.90625 -1.35937,-17.4375 z"
         style=""
         id="path1422" />
      <path
         d="m 384.16797,311.84938 h -15.09375 l -6,-15.60938 h -27.46875 l -5.67188,15.60938 h -14.71875 l 26.76563,-68.71875 h 14.67187 z m -25.54688,-27.1875 -9.46875,-25.5 -9.28125,25.5 z"
         style=""
         id="path1424" />
      <path
         d="m 391.57422,311.84938 v -68.71875 h 22.26562 q 12.65625,0 16.5,1.03125 5.90625,1.54687 9.89063,6.75 3.98437,5.15625 3.98437,13.35937 0,6.32813 -2.29687,10.64063 -2.29688,4.3125 -5.85938,6.79687 -3.51562,2.4375 -7.17187,3.23438 -4.96875,0.98437 -14.39063,0.98437 h -9.04687 v 25.92188 z m 13.875,-57.09375 v 19.5 h 7.59375 q 8.20312,0 10.96875,-1.07813 2.76562,-1.07812 4.3125,-3.375 1.59375,-2.29687 1.59375,-5.34375 0,-3.75 -2.20313,-6.1875 -2.20312,-2.4375 -5.57812,-3.04687 -2.48438,-0.46875 -9.98438,-0.46875 z"
         style=""
         id="path1426" />
      <path
         d="m 455.69922,311.84938 v -68.71875 h 22.26562 q 12.65625,0 16.5,1.03125 5.90625,1.54687 9.89063,6.75 3.98437,5.15625 3.98437,13.35937 0,6.32813 -2.29687,10.64063 -2.29688,4.3125 -5.85938,6.79687 -3.51562,2.4375 -7.17187,3.23438 -4.96875,0.98437 -14.39063,0.98437 h -9.04687 v 25.92188 z m 13.875,-57.09375 v 19.5 h 7.59375 q 8.20312,0 10.96875,-1.07813 2.76562,-1.07812 4.3125,-3.375 1.59375,-2.29687 1.59375,-5.34375 0,-3.75 -2.20313,-6.1875 -2.20312,-2.4375 -5.57812,-3.04687 -2.48438,-0.46875 -9.98438,-0.46875 z"
         style=""
         id="path1428" />
    </g>
  </g>
</svg>
