<svg width="2048" height="2048" xmlns="http://www.w3.org/2000/svg">

 <g>
  <title>background</title>
  <rect fill="none" id="canvas_background" height="402" width="582" y="-1" x="-1"/>
 </g>
 <g>
  <title>Layer 1</title>
  <path fill="#424242" id="_333144480" d="m863.415,373.122c-0.66496,0.08622 -1.23898,0.25512 -1.81417,0.33898c1.06536,-0.25276 1.66299,-0.33898 1.66299,-0.33898l0.15118,0z" class="fil0"/>
  <path fill="#424242" id="_333144096" d="m611.933,1552.46l0.08504,-0.23622c-4.90985,-3.92363 -10.3276,-7.51064 -15.1654,-11.5193c8.91261,7.0819 15.0803,11.7555 15.0803,11.7555l0.00006,0.00002z" class="fil0"/>
  <path fill="#85b5e5" id="_333144120" d="m1043.31,829.762c-91.839,-187.34 -198.907,-358.612 -323.929,-510.937c-89.602,38.7603 -170.362,94.0973 -238.409,162.145c-119.913,119.91 -200.358,279.292 -220.169,456.981c272.478,-11.1083 505.803,-24.2906 715.821,-86.4674c22.4776,-6.65552 44.7012,-13.8756 66.6875,-21.7217l-0.0015,0.0001z" class="fil0"/>
  <path fill="#85b5e5" id="_333144792" d="m1075.39,817.799c170.677,-66.4312 327.468,-173.023 480.331,-347.908c-137.988,-132.449 -325.348,-213.856 -531.724,-213.856c-95.6387,0 -187.197,17.4839 -271.649,49.4292c124.647,153.304 231.432,325.005 323.042,512.335l0,-0.0002z" class="fil0"/>
  <path fill="#85b5e5" id="_333144216" d="m1791.97,1024l0,0zm0.06732,-0.01181c-0.00354,-205.435 -80.7379,-392.073 -212.218,-529.928c-155.666,177.605 -315.548,286.382 -489.578,354.508c13.7421,28.8709 27.1323,58.1044 40.1823,87.6898c15.7335,35.6681 30.9733,71.8489 45.7359,108.524c205.049,-50.9457 414.913,-30.9331 614.141,30.2634c1.10669,-16.8721 1.67008,-33.8941 1.67008,-51.0579l0.06733,0l-0.00061,0.0007z" class="fil0"/>
  <path fill="#85b5e5" id="_333143760" d="m1099.22,949.987c-13.311,-30.1772 -26.9764,-59.9788 -41.0067,-89.3953c-23.7225,8.53701 -47.7118,16.3654 -71.9965,23.5547c-214.845,63.6071 -451.706,76.7363 -728.462,87.9804c-1.14449,17.1414 -1.72441,34.4386 -1.72441,51.8705c0,212.033 85.969,404.035 224.956,543.023c3.70394,3.70394 7.44331,7.3689 11.2217,10.9961c170.863,-262.421 365.901,-418.067 569.242,-496.909c27.0508,-10.4894 54.2398,-19.6146 81.5292,-27.4488c-14.1425,-35.0221 -28.7244,-69.5847 -43.7599,-103.671l0.00061,-0.0006z" class="fil0"/>
  <path fill="#85b5e5" id="_333143856" d="m1350.67,1719.21c-53.0918,-223.742 -117.23,-435.913 -195.027,-633.771c-27.4358,7.75985 -54.7583,16.8685 -81.926,27.4028c-198.143,76.826 -388.63,229.713 -556.032,488.566c135.174,118.63 312.349,190.563 506.314,190.563c116.817,0 227.542,-26.0918 326.671,-72.7607l0,-0.0001zm-750.218,-175.6579c-1.22362,-0.93307 -2.42835,-1.87914 -3.6,-2.84882c1.25787,0.99921 2.46142,1.95118 3.6,2.84882zm11.5654,8.67048l-0.08504,0.23622c0,0 -4.54843,-3.44882 -11.4803,-8.9067c3.8315,2.91614 7.84371,5.69646 11.5654,8.67048l-0.00006,0z" class="fil0"/>
  <path stroke="#007f7f" fill="#85b5e5" id="_333143352" d="m1567.01,1567.02c119.992,-119.993 200.469,-279.502 220.224,-457.301c-194.314,-60.7052 -398.919,-81.4678 -598.397,-33.0047c76.8414,196.034 140.393,405.854 193.153,626.863c68.4438,-36.1359 130.771,-82.3087 185.02,-136.558l0,0.0007z" class="fil0"/>
  <line stroke="#ff7f00" stroke-linecap="undefined" stroke-linejoin="undefined" id="svg_2" y2="1705.759619" x2="1821.653995" y1="1705.759619" x1="1528.868058" stroke-width="6.5" fill="none"/>
  <line stroke-linecap="undefined" stroke-linejoin="undefined" id="svg_3" y2="1780.832936" x2="1724.058682" y1="1780.832936" x1="1427.51908" stroke-width="6.5" stroke="#ef7809" fill="none"/>
  <polyline stroke-linecap="round" id="svg_4" points="571.6832642175787,1172.7390668645983 571.6832642175787,1172.7390668645983 " stroke-opacity="null" stroke-width="null" stroke="null" fill="none"/>
  <polyline stroke-linecap="round" id="svg_5" points="500.3636129323836,1116.4340790078654 500.3636129323836,1116.4340790078654 " stroke-opacity="null" stroke-width="null" stroke="null" fill="none"/>
  <path stroke="null" d="m395.260956,1202.768433c0,0 3.753693,0 3.753693,0l0,0" id="svg_6" stroke-opacity="null" stroke-width="null" fill="#85b5e5"/>
 </g>
</svg>